<?xml version="1.0" encoding="iso-8859-1"?>
<!-- Generator: Adobe Illustrator 19.0.0, SVG Export Plug-In . SVG Version: 6.00 Build 0)  -->
<svg version="1.1" id="Capa_1" xmlns="http://www.w3.org/2000/svg" xmlns:xlink="http://www.w3.org/1999/xlink" x="0px" y="0px"
	 viewBox="0 0 512 512" style="enable-background:new 0 0 512 512;" xml:space="preserve">
<g>
	<g>
		<path d="M320,117.333v32c0,35.346-28.654,64-64,64s-64-28.654-64-64v-32h-21.333v32c0.053,47.106,38.227,85.28,85.333,85.333
			c47.106-0.053,85.28-38.227,85.333-85.333v-32H320z"/>
	</g>
</g>
<g>
	<g>
		<path d="M341.333,266.667V288c35.332,0.035,63.965,28.668,64,64v138.667H106.667V352c0.035-35.332,28.668-63.965,64-64v-21.333
			C123.56,266.72,85.386,304.894,85.333,352v149.333C85.333,507.224,90.109,512,96,512h320c5.891,0,10.667-4.776,10.667-10.667V352
			C426.614,304.894,388.44,266.72,341.333,266.667z"/>
	</g>
</g>
<g>
	<g>
		<rect x="138.667" y="426.667" width="21.333" height="74.667"/>
	</g>
</g>
<g>
	<g>
		<rect x="352" y="426.667" width="21.333" height="74.667"/>
	</g>
</g>
<g>
	<g>
		<rect x="128" y="106.667" width="256" height="21.333"/>
	</g>
</g>
<g>
	<g>
		<path d="M202.667,0c-5.07-0.001-9.439,3.566-10.453,8.533L170.88,115.2l20.907,4.267l19.563-97.824
			c18.443,1.301,33.984,6.347,33.984,10.357h21.333C266.667,1.547,213.333,0,202.667,0z"/>
	</g>
</g>
<g>
	<g>
		<path d="M319.787,8.533c-1.014-4.967-5.384-8.534-10.453-8.533c-10.667,0-64,1.547-64,32v10.667h21.333V32
			c0-4.011,15.541-9.056,33.984-10.357l19.563,97.824l20.907-4.267L319.787,8.533z"/>
	</g>
</g>
<g>
	<g>
		<rect x="234.667" y="32" width="42.667" height="21.333"/>
	</g>
</g>
<g>
	<g>
		<path d="M288,213.333V252.8l-32,48l-32-48v-39.467h-21.333V256c0.003,2.106,0.627,4.165,1.792,5.92l42.667,64
			c1.979,2.966,5.309,4.747,8.875,4.747c3.566,0,6.896-1.781,8.875-4.747l42.667-64c1.165-1.755,1.789-3.814,1.792-5.92v-42.667H288
			z"/>
	</g>
</g>
<g>
	<g>
		<path d="M391.541,248.512l-64-64l-15.083,15.083l53.536,53.536l-114.763,57.376l9.536,19.093l128-64.021
			c1.017-0.51,1.945-1.179,2.751-1.982C395.691,259.438,395.701,252.684,391.541,248.512z"/>
	</g>
</g>
<g>
	<g>
		<path d="M266.667,501.333l0-181.333c-0.026-4.016-2.306-7.677-5.899-9.472l-114.763-57.376l53.536-53.536l-15.083-15.083l-64,64
			c-0.803,0.805-1.472,1.734-1.982,2.751c-2.64,5.266-0.511,11.676,4.755,14.316l122.101,60.992v174.741H266.667z"/>
	</g>
</g>
<g>
	<g>
		<rect x="192" y="362.667" width="21.333" height="21.333"/>
	</g>
</g>
<g>
	<g>
		<rect x="298.667" y="362.667" width="21.333" height="21.333"/>
	</g>
</g>
<g>
	<g>
		<rect x="298.667" y="426.667" width="21.333" height="21.333"/>
	</g>
</g>
<g>
	<g>
		<rect x="192" y="426.667" width="21.333" height="21.333"/>
	</g>
</g>
<g>
</g>
<g>
</g>
<g>
</g>
<g>
</g>
<g>
</g>
<g>
</g>
<g>
</g>
<g>
</g>
<g>
</g>
<g>
</g>
<g>
</g>
<g>
</g>
<g>
</g>
<g>
</g>
<g>
</g>
</svg>
